<svg id="Layer_1" enable-background="new 0 0 512 512" height="512" viewBox="0 0 512 512" width="512" xmlns="http://www.w3.org/2000/svg" xmlns:xlink="http://www.w3.org/1999/xlink"><linearGradient id="SVGID_1_" gradientUnits="userSpaceOnUse" x1="256.002" x2="256.002" y1=".001" y2="512"><stop offset="0" stop-color="#01f1fe"/><stop offset="1" stop-color="#4fadfe"/></linearGradient><path d="m155.501 205.202 87.986 50.798-87.985 50.798v-101.596zm356.5 50.8c0 141.158-114.839 255.998-255.997 255.998-141.16 0-256.002-114.84-256.002-255.998 0-141.16 114.842-256.001 256.002-256.001 141.158 0 255.997 114.842 255.997 256.001zm-232.514-.002c0-4.287-2.287-8.249-6-10.393l-123.985-71.583c-3.713-2.144-8.287-2.144-12 0s-6 6.105-6 10.393v143.166c0 4.287 2.287 8.249 6 10.393 1.856 1.072 3.928 1.607 6 1.607s4.144-.536 6-1.607l123.985-71.583c3.713-2.144 6-6.105 6-10.393zm42.548-71.583c0-6.627-5.373-12-12-12s-12 5.373-12 12v143.166c0 6.627 5.373 12 12 12s12-5.373 12-12zm58.466 0c0-6.627-5.373-12-12-12s-12 5.373-12 12v143.166c0 6.627 5.373 12 12 12s12-5.373 12-12z" fill="url(#SVGID_1_)"/></svg>